# xmcd
# 
# Track frame offsets:
#     182
#     15990
#     34642
#     51385
#     73257
#     87010
#     107567
#     123492
#     145147
#     159995
#     179377
#     203467
#     227867
#     244197
#     276740
#     296780
#     320260
# 
# Disc length: 4595
# 
# Revision: 8
# Processed by: cddbd v1.5.2PL0 Copyright (c) Steve Scherf et al.
# Submitted via: BonkEnc v1.0.8
# 
DISCID=f311f111
DTITLE=Dijk, De - Live
DYEAR=1990
DGENRE=New Age
TTITLE0=Tarzan
TTITLE1=Het Gevoel Is Weg
TTITLE2=Groot Hart
TTITLE3=Blanke Man
TTITLE4=Wakker In Een Vreemde Wereld
TTITLE5=Mag Het Licht Uit
TTITLE6=Jukebox Blues
TTITLE7=Niemand In De Stad
TTITLE8=Wat Een Vrouw
TTITLE9=Ze Komt Terug
TTITLE10=Deze Stad
TTITLE11=Onderuit
TTITLE12=Ik Kan Het Niet Alleen
TTITLE13=Dansen Op De Vulkaan
TTITLE14=Nergens Goed Voor
TTITLE15=Bloedend Hart
TTITLE16=Lovesong 100.001
EXTD=YEAR: 1990
EXTT0=
EXTT1=
EXTT2=
EXTT3=
EXTT4=
EXTT5=
EXTT6=
EXTT7=
EXTT8=
EXTT9=
EXTT10=
EXTT11=
EXTT12=
EXTT13=
EXTT14=
EXTT15=
EXTT16=
PLAYORDER=
